<svg width="140" height="38" viewBox="0 0 140 38" fill="none" xmlns="http://www.w3.org/2000/svg">
<path d="M30.1929 22.2422C30.1929 22.407 30.2067 22.5168 30.2341 22.5718V29.6566C30.2067 29.7664 30.1792 29.89 30.1517 30.0273C30.1243 30.1372 30.1105 30.2607 30.1105 30.398V30.5628C30.1105 32.2379 30.0831 33.4874 30.0282 34.3112C29.9732 35.135 29.8771 35.6979 29.7398 36C29.4103 36 29.0945 36 28.7924 36C28.5178 36.0275 28.2844 36.0549 28.0922 36.0824H27.2272C26.9526 36.0824 26.8153 36.0824 26.8153 36.0824C26.7603 36.0275 26.7329 36 26.7329 36H26.5681C26.5407 36.0275 26.5269 36.0549 26.5269 36.0824H21.3369C21.3094 36.1098 21.1996 36.1236 21.0074 36.1236C20.8701 36.1236 20.7739 36.0412 20.719 35.8764C20.5543 35.3821 20.4307 34.8467 20.3483 34.27C20.3208 34.1327 20.2934 33.9405 20.2659 33.6933C20.2659 33.4462 20.2522 33.1853 20.2247 32.9107C19.9501 34.1739 19.195 35.1762 17.9592 35.9176C16.751 36.6316 15.1582 36.9886 13.1811 36.9886C12.1101 36.9886 11.0941 36.865 10.133 36.6179C9.1993 36.3707 8.30683 36.0275 7.45555 35.5881C5.58823 34.7643 4.00925 33.2127 2.7186 30.9335C1.45541 28.6543 0.823818 25.5924 0.823818 21.748C0.823818 19.5511 1.23573 17.6014 2.05954 15.8988C2.91082 14.1688 4.06417 12.686 5.51958 11.4502C6.89261 10.2969 8.70501 9.40442 10.9568 8.77282C13.236 8.14123 15.6251 7.82543 18.124 7.82543C18.7556 7.82543 19.4833 7.86662 20.3071 7.949C21.1584 8.00393 22.1744 8.11377 23.3552 8.27853C23.5749 8.27853 23.9044 8.31972 24.3438 8.4021L25.5795 8.60806C26.0464 8.69044 26.4446 8.77282 26.7741 8.8552C27.1311 8.91013 27.4057 8.93759 27.5979 8.93759L27.7215 9.01997C27.7489 9.07489 27.8039 9.14354 27.8862 9.22592C28.0235 9.39068 28.1334 9.47307 28.2158 9.47307H28.2981L28.3805 10.2145C28.3805 10.4067 28.3805 10.6127 28.3805 10.8324C28.408 11.0521 28.4354 11.2717 28.4629 11.4914C28.5178 12.123 28.559 12.6448 28.5865 13.0567C28.6414 13.4686 28.6689 13.8393 28.6689 14.1688C28.6689 15.4046 28.3668 16.2558 27.7627 16.7227L23.2317 15.8988H22.655C22.2156 15.8988 21.79 15.8714 21.3781 15.8165C20.9936 15.7615 20.5268 15.7615 19.9776 15.8165C19.9501 15.8165 19.9364 15.8302 19.9364 15.8577C19.9364 15.8577 19.9227 15.8577 19.8952 15.8577C18.2201 15.8577 16.902 16.2833 15.9409 17.1346C14.9798 17.9584 14.4992 19.5511 14.4992 21.9127C14.4992 23.78 14.5953 25.1531 14.7875 26.0318C14.9798 26.9105 15.2269 27.5559 15.529 27.9678C15.831 28.4071 16.2567 28.7641 16.8059 29.0387C17.3551 29.3133 17.918 29.4506 18.4947 29.4506C18.8242 29.4506 19.0439 29.382 19.1538 29.2447C19.2636 29.0799 19.5382 28.8191 19.9776 28.4621C19.9776 28.2424 19.9639 28.0502 19.9364 27.8854C19.9364 27.6932 19.9227 27.3911 19.8952 26.9792L19.854 26.1966C19.8265 25.8945 19.8128 25.3865 19.8128 24.6725C19.8128 23.9585 19.8128 23.3132 19.8128 22.7365V21.748C19.8128 21.4733 19.854 21.2949 19.9364 21.2125C20.0188 21.1301 20.1561 21.0889 20.3483 21.0889C20.4307 21.1164 20.6778 21.1301 21.0897 21.1301H25.3736C26.0052 21.1301 26.5269 21.1301 26.9388 21.1301C27.3782 21.1301 27.6803 21.1164 27.845 21.0889C28.2295 21.0889 28.5316 21.0889 28.7512 21.0889C28.9984 21.0889 29.1769 21.1026 29.2867 21.1301C29.6437 21.185 29.8771 21.3086 29.987 21.5008C30.1243 21.6656 30.1929 21.9127 30.1929 22.2422ZM37.0631 8.60806L36.816 8.48449C36.816 8.42956 36.7885 8.4021 36.7336 8.4021C36.6512 8.4021 36.5963 8.41583 36.5688 8.4433C36.5414 8.47076 36.4864 8.48449 36.4041 8.48449L36.0333 8.56687L35.745 8.48449C35.6626 8.48449 35.6077 8.47076 35.5802 8.4433C35.5528 8.41583 35.4979 8.4021 35.4155 8.4021L34.4681 8.27853L34.1797 8.15496H33.9738C33.9738 8.20988 33.9463 8.23734 33.8914 8.23734C33.6992 8.23734 33.5756 8.22361 33.5207 8.19615C33.4932 8.16869 33.4246 8.15496 33.3147 8.15496C33.0951 8.01765 32.944 7.79797 32.8616 7.4959C32.8342 7.44098 32.8204 7.38606 32.8204 7.33114C32.8204 7.24876 32.8067 7.19384 32.7793 7.16638C32.7518 7.13892 32.7381 7.11146 32.7381 7.084C32.7381 7.02907 32.7243 6.98788 32.6969 6.96042V3.04729C32.7243 2.93745 32.7381 2.77268 32.7381 2.553V1.48203C32.7381 1.12505 32.7106 0.877902 32.6557 0.740598V0.658217C32.6557 0.630757 32.7793 0.603296 33.0264 0.575836C33.2735 0.548374 33.507 0.534643 33.7266 0.534643C33.9463 0.534643 34.0836 0.534643 34.1386 0.534643C34.2209 0.534643 34.2759 0.548374 34.3033 0.575836H34.88L35.7038 0.658217L36.4864 0.905362C36.6787 0.932823 37.0357 0.974015 37.5574 1.02894C38.0792 1.08386 38.3949 1.11132 38.5048 1.11132C38.6421 1.11132 38.903 1.15251 39.2874 1.23489C39.6993 1.31727 39.9602 1.34473 40.07 1.31727C40.2073 1.28981 40.3447 1.34473 40.482 1.48203C40.6193 1.59188 40.7428 1.6468 40.8527 1.6468C41.347 1.56442 41.855 1.63307 42.3767 1.85275C42.6788 1.96259 42.9397 2.05871 43.1594 2.14109C43.379 2.19601 43.5026 2.33331 43.5301 2.553L43.5713 3.82992C43.5987 4.62627 43.6537 5.28533 43.736 5.80708C43.8459 6.30137 43.8459 6.98788 43.736 7.86662L43.4477 8.15496L39.9465 8.48449C39.7268 8.48449 39.4247 8.49822 39.0403 8.52568C38.6833 8.52568 38.4636 8.53941 38.3812 8.56687C38.2714 8.59433 38.1615 8.60806 38.0517 8.60806C37.9419 8.60806 37.8183 8.60806 37.681 8.60806H37.0631ZM41.5117 36.6591L40.5231 36.5355L38.6284 36.3295L38.0517 36.3707H36.61C36.5826 36.2609 36.5002 36.206 36.3629 36.206L35.7862 36.2471C35.594 36.2746 35.4017 36.3021 35.2095 36.3295C35.0448 36.357 34.9212 36.3707 34.8388 36.3707C34.7839 36.3158 34.6878 36.2746 34.5505 36.2471H34.3445C34.3445 36.2197 34.3171 36.206 34.2621 36.206L34.1386 36.2471L34.0974 36.2883C33.7129 36.2883 33.452 36.1785 33.3147 35.9588C33.2049 35.7666 33.1225 35.5057 33.0676 35.1762C33.0127 34.8192 32.9852 34.2974 32.9852 33.6109C33.0127 33.4187 33.0127 33.199 32.9852 32.9519C32.9852 32.7047 32.9578 32.3066 32.9028 31.7573L32.7793 30.0685V18.4115C32.7793 17.9447 32.7655 17.4916 32.7381 17.0522C32.7381 16.6128 32.7106 16.0773 32.6557 15.4457C32.6282 15.1986 32.587 14.9789 32.5321 14.7867C32.5047 14.7592 32.4909 14.6631 32.4909 14.4984C32.5458 13.3999 32.7793 12.6722 33.1912 12.3152C33.6305 11.9308 34.4544 11.7386 35.6626 11.7386C35.6626 11.7386 35.745 11.7111 35.9098 11.6562C35.9921 11.6287 36.0883 11.615 36.1981 11.615H36.2393C36.2668 11.615 36.2942 11.6287 36.3217 11.6562C36.5688 11.6562 36.7199 11.6836 36.7748 11.7386H36.9395C37.0494 11.7386 37.1455 11.6974 37.2279 11.615L40.3172 11.6562C40.427 11.6562 40.5506 11.6562 40.6879 11.6562C40.8252 11.6287 40.99 11.6013 41.1822 11.5738C41.347 11.5463 41.704 11.5326 42.2532 11.5326C43.5164 11.5326 44.1479 11.7523 44.1479 12.1917V18.5351C44.1479 19.4687 44.1342 20.5122 44.1068 21.6656C44.0793 22.8189 44.0518 23.9036 44.0244 24.9197C43.9969 25.9357 43.9557 26.732 43.9008 27.3087L43.7772 28.9975C43.7223 29.9312 43.6811 30.7413 43.6537 31.4278C43.6262 32.1143 43.5987 32.6773 43.5713 33.1166C43.5438 33.1441 43.5301 33.2127 43.5301 33.3226C43.5301 33.405 43.5301 33.6384 43.5301 34.0228C43.5301 34.7643 43.434 35.3684 43.2417 35.8352C43.0495 36.2746 42.7886 36.4943 42.4591 36.4943L41.5117 36.6591ZM46.6513 15.8165C46.6513 14.773 46.6513 13.908 46.6513 13.2214C46.6513 12.5349 46.6375 11.8896 46.6101 11.2855C46.6101 10.6539 46.6101 9.92617 46.6101 9.10235C46.6101 8.27853 46.6101 7.20757 46.6101 5.88946C46.6101 5.75216 46.6101 5.58739 46.6101 5.39517C46.6101 5.17548 46.7062 4.99699 46.8984 4.85969C47.0906 4.69492 47.4613 4.64 48.0106 4.69492L50.3996 4.53016L50.6056 4.69492C51.1273 4.69492 51.7177 4.68119 52.3768 4.65373C53.0358 4.62627 53.4889 4.59881 53.7361 4.57135C53.8734 4.57135 54.0244 4.57135 54.1892 4.57135C54.354 4.54389 54.5462 4.51643 54.7659 4.48897C54.9855 4.46151 55.2052 4.44778 55.4249 4.44778C55.6721 4.44778 55.8917 4.44778 56.084 4.44778C56.6881 4.44778 57.2099 4.5027 57.6492 4.61254C58.1161 4.69492 58.3495 4.88715 58.3495 5.18922V7.33114L58.3083 9.67902H58.3495V14.0864C58.4318 14.0864 58.7065 13.9354 59.1733 13.6333C59.6676 13.3313 60.3266 13.0292 61.1504 12.7271C62.0017 12.3976 63.004 12.2329 64.1574 12.2329C65.4755 12.2329 66.6426 12.329 67.6586 12.5212C68.6746 12.686 69.6083 13.0429 70.4596 13.5922C71.3109 14.1139 72.121 14.8965 72.8899 15.94C73.2194 16.3794 73.5077 16.9698 73.7549 17.7112C74.002 18.4527 74.208 19.2765 74.3727 20.1827C74.5375 21.0614 74.6611 21.9264 74.7434 22.7777C74.8258 23.629 74.867 24.3704 74.867 25.002C74.867 27.8854 74.4963 30.1921 73.7549 31.9221C73.0134 33.6247 71.9699 34.8604 70.6244 35.6293C69.2788 36.3982 67.7135 36.7826 65.9286 36.7826C64.7752 36.7826 63.5807 36.508 62.345 35.9588C61.1093 35.4096 60.1344 34.6682 59.4204 33.7345C59.3655 33.7345 59.3243 33.762 59.2969 33.8169C59.2969 33.8443 59.2969 33.8581 59.2969 33.8581C59.3243 33.913 59.338 33.9679 59.338 34.0228C59.393 34.2151 59.3792 34.4622 59.2969 34.7643C59.2145 35.0389 59.1184 35.2998 59.0085 35.5469C58.8987 35.7666 58.8163 35.8902 58.7614 35.9176C58.3769 36.1648 57.7865 36.2883 56.9902 36.2883C56.5233 36.2883 56.1114 36.2883 55.7544 36.2883C55.4249 36.2883 55.1778 36.3158 55.013 36.3707H50.8527L48.0929 36.4119C47.5986 36.4119 47.2828 36.1922 47.1455 35.7529C47.0082 35.286 46.9396 34.6682 46.9396 33.8993C46.9396 33.3501 46.9259 32.8283 46.8984 32.334C46.8709 31.8397 46.8297 31.3454 46.7748 30.8511V29.6154C46.7474 29.3133 46.7199 28.8465 46.6924 28.2149C46.6924 27.5559 46.6924 26.7595 46.6924 25.8259V16.8462L46.6513 15.94V15.8165ZM61.1504 29.4506C61.8095 29.4506 62.3175 29.2447 62.6745 28.8328C63.059 28.4209 63.3748 27.8854 63.6219 27.2263C63.7592 26.8144 63.8553 26.4163 63.9102 26.0318C63.9652 25.6199 64.0063 25.1805 64.0338 24.7137C64.0338 24.4666 64.0063 23.9997 63.9514 23.3132C63.924 22.6267 63.869 22.0363 63.7867 21.542C63.5944 20.4161 63.4022 19.5374 63.21 18.9058C63.0178 18.2742 62.7432 17.9584 62.3862 17.9584C61.5349 17.9584 60.8896 18.3291 60.4502 19.0705C60.0383 19.7845 59.8049 20.5397 59.75 21.336C59.75 21.4459 59.7362 21.5695 59.7088 21.7068C59.6813 21.8166 59.6538 21.9402 59.6264 22.0775L59.5852 22.4894C59.5577 22.9562 59.5577 23.3956 59.5852 23.8075C59.6401 24.1919 59.695 24.5627 59.75 24.9197C59.75 26.1554 59.8735 27.2263 60.1207 28.1325C60.3678 29.0113 60.7111 29.4506 61.1504 29.4506ZM59.2969 33.8581C59.2969 33.9405 59.2969 33.9405 59.2969 33.8581C59.2969 33.8581 59.2969 33.8443 59.2969 33.8169C59.3243 33.762 59.3243 33.6658 59.2969 33.5285C59.2969 33.6384 59.2969 33.7345 59.2969 33.8169V33.8581ZM76.9813 15.8165C76.9813 14.773 76.9813 13.908 76.9813 13.2214C76.9813 12.5349 76.9675 11.8896 76.9401 11.2855C76.9401 10.6539 76.9401 9.92617 76.9401 9.10235C76.9401 8.27853 76.9401 7.20757 76.9401 5.88946C76.9401 5.75216 76.9401 5.58739 76.9401 5.39517C76.9401 5.17548 77.0362 4.99699 77.2284 4.85969C77.4206 4.69492 77.7914 4.64 78.3406 4.69492L80.7296 4.53016L80.9356 4.69492C81.4573 4.69492 82.0477 4.68119 82.7068 4.65373C83.3659 4.62627 83.819 4.59881 84.0661 4.57135C84.2034 4.57135 84.3544 4.57135 84.5192 4.57135C84.684 4.54389 84.8762 4.51643 85.0959 4.48897C85.3156 4.46151 85.5352 4.44778 85.7549 4.44778C86.0021 4.44778 86.2218 4.44778 86.414 4.44778C87.0181 4.44778 87.5399 4.5027 87.9792 4.61254C88.4461 4.69492 88.6795 4.88715 88.6795 5.18922V7.33114L88.6383 9.67902H88.6795V14.0864C88.7619 14.0864 89.0365 13.9354 89.5033 13.6333C89.9976 13.3313 90.6566 13.0292 91.4805 12.7271C92.3317 12.3976 93.334 12.2329 94.4874 12.2329C95.8055 12.2329 96.9726 12.329 97.9886 12.5212C99.0047 12.686 99.9383 13.0429 100.79 13.5922C101.641 14.1139 102.451 14.8965 103.22 15.94C103.549 16.3794 103.838 16.9698 104.085 17.7112C104.332 18.4527 104.538 19.2765 104.703 20.1827C104.867 21.0614 104.991 21.9264 105.073 22.7777C105.156 23.629 105.197 24.3704 105.197 25.002C105.197 27.8854 104.826 30.1921 104.085 31.9221C103.343 33.6247 102.3 34.8604 100.954 35.6293C99.6088 36.3982 98.0435 36.7826 96.2586 36.7826C95.1053 36.7826 93.9107 36.508 92.675 35.9588C91.4393 35.4096 90.4644 34.6682 89.7504 33.7345C89.6955 33.7345 89.6543 33.762 89.6269 33.8169C89.6269 33.8443 89.6269 33.8581 89.6269 33.8581C89.6543 33.913 89.6681 33.9679 89.6681 34.0228C89.723 34.2151 89.7092 34.4622 89.6269 34.7643C89.5445 35.0389 89.4484 35.2998 89.3385 35.5469C89.2287 35.7666 89.1463 35.8902 89.0914 35.9176C88.7069 36.1648 88.1165 36.2883 87.3202 36.2883C86.8533 36.2883 86.4414 36.2883 86.0844 36.2883C85.7549 36.2883 85.5078 36.3158 85.343 36.3707H81.1827L78.4229 36.4119C77.9287 36.4119 77.6129 36.1922 77.4756 35.7529C77.3383 35.286 77.2696 34.6682 77.2696 33.8993C77.2696 33.3501 77.2559 32.8283 77.2284 32.334C77.2009 31.8397 77.1598 31.3454 77.1048 30.8511V29.6154C77.0774 29.3133 77.0499 28.8465 77.0225 28.2149C77.0225 27.5559 77.0225 26.7595 77.0225 25.8259V16.8462L76.9813 15.94V15.8165ZM91.4805 29.4506C92.1395 29.4506 92.6475 29.2447 93.0045 28.8328C93.389 28.4209 93.7048 27.8854 93.9519 27.2263C94.0892 26.8144 94.1853 26.4163 94.2402 26.0318C94.2952 25.6199 94.3364 25.1805 94.3638 24.7137C94.3638 24.4666 94.3364 23.9997 94.2814 23.3132C94.254 22.6267 94.1991 22.0363 94.1167 21.542C93.9244 20.4161 93.7322 19.5374 93.54 18.9058C93.3478 18.2742 93.0732 17.9584 92.7162 17.9584C91.8649 17.9584 91.2196 18.3291 90.7802 19.0705C90.3683 19.7845 90.1349 20.5397 90.08 21.336C90.08 21.4459 90.0662 21.5695 90.0388 21.7068C90.0113 21.8166 89.9839 21.9402 89.9564 22.0775L89.9152 22.4894C89.8877 22.9562 89.8877 23.3956 89.9152 23.8075C89.9701 24.1919 90.025 24.5627 90.08 24.9197C90.08 26.1554 90.2035 27.2263 90.4507 28.1325C90.6978 29.0113 91.0411 29.4506 91.4805 29.4506ZM89.6269 33.8581C89.6269 33.9405 89.6269 33.9405 89.6269 33.8581C89.6269 33.8581 89.6269 33.8443 89.6269 33.8169C89.6543 33.762 89.6543 33.6658 89.6269 33.5285C89.6269 33.6384 89.6269 33.7345 89.6269 33.8169V33.8581ZM129.39 37.8124C129.225 37.8124 129.115 37.7987 129.06 37.7712C128.676 37.5241 128.36 37.2495 128.113 36.9474C128.058 36.8925 128.017 36.8375 127.989 36.7826C127.989 36.7552 127.975 36.7414 127.948 36.7414C127.893 36.6865 127.852 36.6591 127.824 36.6591H127.783L127.577 36.4943L123.54 31.0983C123.486 30.9061 123.389 30.7276 123.252 30.5628C123.142 30.3706 123.019 30.1784 122.881 29.9861C122.772 29.9037 122.675 29.8214 122.593 29.739C122.511 29.6291 122.442 29.5193 122.387 29.4095C122.277 29.2447 122.167 29.1623 122.058 29.1623C121.948 29.1623 121.865 29.3133 121.81 29.6154C121.756 29.9724 121.714 30.5216 121.687 31.263C121.687 32.0045 121.687 32.691 121.687 33.3226C121.687 34.421 121.618 35.3547 121.481 36.1236C121.453 36.4531 121.344 36.6179 121.151 36.6179H120.863L120.74 36.5355H120.698C120.067 36.5904 119.215 36.6453 118.144 36.7002C117.074 36.7826 116.003 36.8513 114.932 36.9062C113.888 36.9611 113.051 36.9886 112.419 36.9886C112.282 36.9886 112.158 36.9749 112.048 36.9474C111.938 36.9474 111.842 36.9337 111.76 36.9062H109.824L108.423 36.4119L108.3 36.1236V35.9588C108.272 35.9039 108.259 35.794 108.259 35.6293C108.259 35.5744 108.245 35.4782 108.217 35.3409C108.19 35.1762 108.163 34.984 108.135 34.7643C108.053 33.9679 107.998 33.2814 107.97 32.7047C107.97 32.1006 107.984 31.8946 108.012 32.0869C107.984 31.7299 107.943 31.2493 107.888 30.6452C107.833 30.0411 107.778 29.3133 107.723 28.4621L107.641 27.0204C107.641 26.0593 107.6 25.3178 107.517 24.7961L107.394 23.9311C107.311 23.3819 107.27 22.8601 107.27 22.3658C107.298 21.8715 107.311 21.391 107.311 20.9241C107.311 20.8692 107.325 20.828 107.352 20.8006V20.4298C107.38 20.32 107.394 20.0729 107.394 19.6884L107.476 18.9882L107.517 18.5351C107.517 17.9859 107.476 17.162 107.394 16.0636C107.311 15.4046 107.27 14.567 107.27 13.551C107.27 12.837 107.284 12.2054 107.311 11.6562C107.366 11.107 107.449 10.6676 107.558 10.3381C107.751 9.37695 108.149 8.89639 108.753 8.89639C110.236 8.89639 111.732 8.92385 113.243 8.97878C114.781 9.00624 116.305 9.01997 117.815 9.01997C118.172 9.01997 118.598 9.0337 119.092 9.06116C119.614 9.06116 120.218 9.07489 120.904 9.10235L122.428 9.14354L128.03 9.22592C131.408 9.33576 133.989 10.187 135.774 11.7798C136.571 12.4388 137.161 13.2352 137.545 14.1688C137.93 15.1025 138.122 16.0911 138.122 17.1346C138.122 18.3154 137.916 19.3863 137.504 20.3475C137.12 21.2811 136.571 22.0912 135.857 22.7777C135.17 23.4093 134.415 23.9173 133.591 24.3018C133.701 24.3292 133.824 24.4528 133.962 24.6725C134.099 24.8647 134.195 25.0707 134.25 25.2904C134.305 25.4002 134.374 25.4826 134.456 25.5375C134.566 25.565 134.676 25.6474 134.786 25.7847L135.321 26.4437L135.609 26.732C135.692 26.8144 135.747 26.8968 135.774 26.9792C135.829 27.0341 135.884 27.1028 135.939 27.1851L137.216 29.0799C137.6 29.6291 137.93 30.096 138.204 30.4804C138.507 30.8374 138.712 31.1532 138.822 31.4278C139.015 31.7848 139.111 32.0457 139.111 32.2104C139.111 32.6773 138.699 33.1853 137.875 33.7345C137.683 33.8443 137.504 33.9542 137.339 34.064C137.175 34.1739 136.982 34.2837 136.763 34.3936C136.323 34.5858 136.008 34.778 135.815 34.9702L134.415 35.9588C134.14 36.151 133.866 36.2883 133.591 36.3707C133.316 36.4806 133.028 36.5767 132.726 36.6591C132.671 36.6591 132.644 36.6728 132.644 36.7002C132.644 36.7277 132.616 36.7277 132.561 36.7002C132.534 36.7002 132.493 36.7277 132.438 36.7826C132.355 36.865 131.93 37.016 131.161 37.2357C131.023 37.3181 130.79 37.3868 130.461 37.4417C130.268 37.579 130.09 37.6476 129.925 37.6476H129.76C129.705 37.7575 129.664 37.8124 129.637 37.8124H129.39ZM121.605 23.4368H122.181C123.005 23.4368 123.582 23.0523 123.911 22.2834C124.241 21.4871 124.433 20.6221 124.488 19.6884C124.515 19.3863 124.529 19.0705 124.529 18.741C124.557 18.4115 124.57 18.0545 124.57 17.6701V17.2581C124.57 16.6266 124.529 15.94 124.447 15.1986C124.364 14.4572 124.007 13.8942 123.376 13.5098C123.019 13.2626 122.621 13.1391 122.181 13.1391C122.044 13.1391 121.948 13.3038 121.893 13.6333C121.673 14.21 121.536 15.1437 121.481 16.4343C121.453 16.6815 121.426 16.9561 121.399 17.2581C121.371 17.5602 121.344 17.8897 121.316 18.2467L121.275 19.4413C121.248 20.2102 121.234 20.9241 121.234 21.5832C121.234 22.2148 121.234 22.7777 121.234 23.272C121.234 23.3544 121.261 23.3956 121.316 23.3956L121.605 23.4368Z" fill="#E66DAD"/>
</svg>
